<svg width="80" height="14" viewBox="0 0 80 14" fill="none" xmlns="http://www.w3.org/2000/svg">
<path d="M12.3178 0.663574L7.9478 6.80365L4.32192 1.72959V7.83889L7.23762 11.8106H8.641L11.5553 7.84868V13.3368H15.1274V0.663574H12.3178Z" fill="#6912AA"/>
<path d="M3.53676 3.99452H0V13.3145H3.53676V3.99452Z" fill="#6912AA"/>
<path d="M3.53676 0.691554H0V3.02224H3.53676V0.691554Z" fill="#FED518"/>
<path d="M20.8371 11.4356H18.5241V2.58856H20.8371V11.4356Z" fill="black"/>
<path d="M22.0368 11.4356V2.58856H24.3003V3.82105C24.7771 2.96208 25.8424 2.34234 27.1057 2.34234C28.0268 2.32505 28.9174 2.66908 29.5828 3.29923C30.2548 3.93157 30.6 4.8381 30.6 6.02443V11.4356H28.294V6.64417C28.294 5.23261 27.5386 4.45338 26.4068 4.45338C25.1775 4.45338 24.3569 5.3781 24.3569 6.69174V11.4356H22.0368Z" fill="black"/>
<path d="M40.4916 7.81091H33.7831C34.1099 9.06019 34.9799 9.69253 36.3904 9.69253C37.4177 9.66535 38.4172 9.35687 39.2778 8.80138L40.1959 10.406C39.0624 11.2189 37.6928 11.646 36.2928 11.6231C34.7168 11.6231 33.52 11.1684 32.6839 10.2773C31.8478 9.38615 31.4375 8.28236 31.4375 7.00091C31.4375 5.6537 31.8619 4.55131 32.7334 3.67556C33.6048 2.7998 34.714 2.36192 36.0947 2.36192C37.3906 2.36192 38.4742 2.76762 39.3103 3.56224C40.1464 4.35685 40.5737 5.42707 40.5737 6.80645C40.5683 7.14267 40.5409 7.4782 40.4916 7.81091ZM33.7831 6.10837H38.3257C38.1121 4.95701 37.276 4.25893 36.0947 4.25893C34.9134 4.25893 34.0618 4.95701 33.7831 6.10837Z" fill="black"/>
<path d="M55.0093 3.33421C55.6982 4.00012 56.042 4.90805 56.042 6.09158V11.4356H53.729V6.51407C53.729 5.16686 53.0075 4.45338 51.9422 4.45338C50.7765 4.45338 49.9729 5.28157 49.9729 6.57842V11.4356H47.6613V6.53925C47.6613 5.22562 46.954 4.46318 45.8562 4.46318C44.7244 4.46318 43.9039 5.29137 43.9039 6.605V11.4356H41.5922V2.58856H43.8558V3.84763C44.1292 3.37663 44.5269 2.98785 45.0062 2.72276C45.4856 2.45766 46.0287 2.32618 46.5777 2.34234C47.6939 2.34234 48.7266 2.87814 49.2019 3.89939C49.8584 2.92991 51.0708 2.34234 52.4006 2.34234C53.4673 2.34234 54.3359 2.6697 55.0093 3.33421Z" fill="black"/>
<path d="M58.406 3.70773C59.3086 2.79747 60.4568 2.34234 61.8508 2.34234C63.2447 2.34234 64.3925 2.79654 65.2942 3.70493C65.7337 4.13405 66.0799 4.64759 66.3113 5.21394C66.5426 5.78028 66.6544 6.38747 66.6395 6.99811C66.6395 8.31174 66.1967 9.41413 65.2942 10.3067C64.3916 11.1992 63.2443 11.6525 61.8508 11.6525C60.4573 11.6525 59.3043 11.1992 58.406 10.3067C57.5076 9.41413 57.0606 8.31174 57.0606 6.99811C57.0462 6.38793 57.1581 5.78128 57.3895 5.21544C57.6208 4.6496 57.9668 4.13652 58.406 3.70773ZM61.8508 9.53025C62.1786 9.53765 62.5043 9.47656 62.8066 9.35096C63.1089 9.22537 63.3809 9.03809 63.605 8.80138C64.075 8.31805 64.3342 7.67142 64.3265 7.00091C64.3319 6.67092 64.271 6.34316 64.1471 6.0367C64.0232 5.73024 63.839 5.4512 63.605 5.21582C63.3811 4.9789 63.1091 4.79149 62.8067 4.66587C62.5044 4.54026 62.1786 4.47929 61.8508 4.48696C61.5202 4.47918 61.1917 4.54002 60.8863 4.66556C60.581 4.79111 60.3057 4.97856 60.0782 5.21582C59.8461 5.45189 59.664 5.73136 59.5426 6.03788C59.4211 6.34439 59.3627 6.67179 59.3708 7.00091C59.3577 7.66975 59.6119 8.31673 60.0782 8.80138C60.3059 9.03837 60.5813 9.22563 60.8865 9.35116C61.1918 9.47668 61.5203 9.53768 61.8508 9.53025Z" fill="black"/>
<path d="M67.8831 11.4356V2.58856H70.1466V3.82105C70.6219 2.96208 71.6872 2.34234 72.9505 2.34234C73.8717 2.3249 74.7624 2.66895 75.4277 3.29923C76.0997 3.93157 76.4448 4.8381 76.4448 6.02443V11.4356H74.1304V6.64417C74.1304 5.23261 73.3764 4.45338 72.2446 4.45338C71.0138 4.45338 70.1933 5.3781 70.1933 6.69174V11.4356H67.8831Z" fill="black"/>
<path d="M80 11.4356H77.687V2.58856H80V11.4356Z" fill="black"/>
</svg>
